<svg id="_0332_online_shopping_1" xmlns="http://www.w3.org/2000/svg" xmlns:xlink="http://www.w3.org/1999/xlink" viewBox="0 0 500 500" data-imageid="online-shopping-1-81" imageName="Online Shopping 1" class="illustrations_image" style="width: 188px;"><defs><style>.cls-1_online-shopping-1-81{fill:url(#linear-gradient);}.cls-1_online-shopping-1-81,.cls-2_online-shopping-1-81,.cls-3_online-shopping-1-81,.cls-4_online-shopping-1-81,.cls-5_online-shopping-1-81,.cls-6_online-shopping-1-81,.cls-7_online-shopping-1-81,.cls-8_online-shopping-1-81,.cls-9_online-shopping-1-81,.cls-10_online-shopping-1-81,.cls-11_online-shopping-1-81,.cls-12_online-shopping-1-81,.cls-13_online-shopping-1-81,.cls-14_online-shopping-1-81,.cls-15_online-shopping-1-81,.cls-16_online-shopping-1-81,.cls-17_online-shopping-1-81,.cls-18_online-shopping-1-81,.cls-19_online-shopping-1-81{stroke-width:0px;}.cls-2_online-shopping-1-81{fill:url(#linear-gradient-11-online-shopping-1-81);}.cls-3_online-shopping-1-81{fill:url(#linear-gradient-12-online-shopping-1-81);}.cls-4_online-shopping-1-81{fill:url(#linear-gradient-10-online-shopping-1-81);}.cls-5_online-shopping-1-81{opacity:.55;}.cls-5_online-shopping-1-81,.cls-6_online-shopping-1-81{isolation:isolate;}.cls-5_online-shopping-1-81,.cls-6_online-shopping-1-81,.cls-19_online-shopping-1-81{fill:#68e1fd;}.cls-6_online-shopping-1-81{opacity:.41;}.cls-7_online-shopping-1-81{fill:url(#linear-gradient-4-online-shopping-1-81);}.cls-8_online-shopping-1-81{fill:url(#linear-gradient-2-online-shopping-1-81);}.cls-9_online-shopping-1-81{fill:url(#linear-gradient-3-online-shopping-1-81);}.cls-10_online-shopping-1-81{fill:url(#linear-gradient-8-online-shopping-1-81);}.cls-11_online-shopping-1-81{fill:url(#linear-gradient-9-online-shopping-1-81);}.cls-12_online-shopping-1-81{fill:url(#linear-gradient-7-online-shopping-1-81);}.cls-13_online-shopping-1-81{fill:url(#linear-gradient-5-online-shopping-1-81);}.cls-14_online-shopping-1-81{fill:url(#linear-gradient-6-online-shopping-1-81);}.cls-15_online-shopping-1-81{fill:#2e2e3f;}.cls-16_online-shopping-1-81{fill:#231f20;}.cls-17_online-shopping-1-81{fill:#fff;}.cls-18_online-shopping-1-81{fill:#ffaa71;}</style><linearGradient id="linear-gradient-online-shopping-1-81" x1="270.34" y1="2839.48" x2="269.29" y2="2572.95" gradientTransform="translate(-38.26 3099.39) scale(1 -1)" gradientUnits="userSpaceOnUse"><stop offset="0" stop-color="#231f20" stop-opacity="0"/><stop offset="1" stop-color="#231f20"/></linearGradient><linearGradient id="linear-gradient-2-online-shopping-1-81" x1="1.15" y1="2748.79" x2="334.31" y2="2956.62" gradientTransform="translate(-31 3100.82) scale(1 -1)" xlink:href="#linear-gradient-online-shopping-1-81"/><linearGradient id="linear-gradient-3-online-shopping-1-81" x1="7050.56" y1="2683.21" x2="7063.28" y2="2683.21" gradientTransform="translate(7247.5 3099.39) rotate(-180)" xlink:href="#linear-gradient-online-shopping-1-81"/><linearGradient id="linear-gradient-4-online-shopping-1-81" x1="192.73" y1="2730.62" x2="192.34" y2="2634.88" gradientTransform="translate(-31 3100.82) scale(1 -1)" xlink:href="#linear-gradient-online-shopping-1-81"/><linearGradient id="linear-gradient-5-online-shopping-1-81" x1="337.27" y1="270.17" x2="361.7" y2="423.62" gradientTransform="matrix(1,0,0,1,0,0)" xlink:href="#linear-gradient-online-shopping-1-81"/><linearGradient id="linear-gradient-6-online-shopping-1-81" x1="496.98" y1="2765.84" x2="314.01" y2="2792.8" gradientTransform="translate(-31 3100.82) scale(1 -1)" xlink:href="#linear-gradient-online-shopping-1-81"/><linearGradient id="linear-gradient-7-online-shopping-1-81" x1="377.85" y1="263.71" x2="402.29" y2="417.15" gradientTransform="translate(592.58 -137.65) rotate(74.22)" xlink:href="#linear-gradient-online-shopping-1-81"/><linearGradient id="linear-gradient-8-online-shopping-1-81" x1="291.01" y1="2912.83" x2="271.98" y2="2824.25" xlink:href="#linear-gradient-online-shopping-1-81"/><linearGradient id="linear-gradient-9-online-shopping-1-81" x1="245.75" y1="216.14" x2="393.66" y2="538.68" gradientTransform="matrix(1,0,0,1,0,0)" xlink:href="#linear-gradient-online-shopping-1-81"/><linearGradient id="linear-gradient-10-online-shopping-1-81" x1="7033.55" y1="2776.08" x2="7044.92" y2="2776.08" gradientTransform="translate(7247.5 3099.39) rotate(-180)" xlink:href="#linear-gradient-online-shopping-1-81"/><linearGradient id="linear-gradient-11-online-shopping-1-81" x1="234.9" y1="263.91" x2="95.02" y2="285.2" gradientTransform="matrix(1,0,0,1,0,0)" xlink:href="#linear-gradient-online-shopping-1-81"/><linearGradient id="linear-gradient-12-online-shopping-1-81" x1="209.73" y1="232.66" x2="357.64" y2="555.19" gradientTransform="matrix(1,0,0,1,0,0)" xlink:href="#linear-gradient-online-shopping-1-81"/></defs><g id="background_online-shopping-1-81"><path class="cls-6_online-shopping-1-81 targetColor" d="M454.42,406.48c-.55,1.11-1.11,2.15-1.66,3.22-7.38,13.87-17.01,27.38-31.05,34.38-18.52,9.29-40.59,5.55-61,2.1-38.02-6.44-76.94-11.16-115.03-5.19-56.95,8.87-111.86,41.51-168.58,31.39-19.95-3.58-38.62-12.32-54.14-25.35-5.84-4.92-11.29-10.54-14.75-17.35-3.7-7.11-5-15.17-5.51-23.19,0-.63-.09-1.28-.11-1.9-1.27-25.84,3.75-51.6,14.62-75.07,9.18-19.79,22.6-38.18,25.93-59.73,4.44-28.51-9.62-56.92-8.74-85.75,1.17-28.71,16.76-54.88,41.43-69.59,17.21-9.98,37.47-13.56,55.92-21.22,14.04-5.85,26.97-14.05,38.24-24.26,9.08-8.16,15.65-20.43,25.65-27.29,18.04-12.35,53.01-16.64,72.31-6.65,10.7,5.55,18.54,15.19,26.97,23.81,21.93,22.38,49.16,38.69,73.86,57.98,24.7,19.29,47.83,43.09,56.35,73.2,8.68,30.68,1.2,64.33,10.65,94.74,7.99,25.76,27.73,47.8,29.94,74.68,1.38,16.36-3.94,32.43-11.3,47.06Z" style="fill: rgb(104, 225, 253);"/><path class="cls-5_online-shopping-1-81 targetColor" d="M454.42,406.48c-.55,1.11-1.11,2.15-1.66,3.22-7.38,13.87-17.01,27.38-31.05,34.38-18.52,9.29-40.59,5.55-61,2.1-38.02-6.44-76.94-11.16-115.03-5.19-56.95,8.87-111.86,41.51-168.58,31.39-19.95-3.58-38.62-12.32-54.14-25.35-5.84-4.92-11.29-10.54-14.75-17.35-3.7-7.11-5-15.17-5.51-23.19h451.73Z" style="fill: rgb(104, 225, 253);"/><path class="cls-1_online-shopping-1-81" d="M56.07,437.22c4.74,5.33,12.58,6.33,19.7,6.85,33.23,2.45,66.61,2.27,99.81-.53,12.2-1.03,24.45-2.43,36.54-4.58,14.67-2.62,29.17-6.37,44-7.82,46.41-4.55,93.66,13.51,139.33,4.07,5.27-1.11,11.31-3.33,12.65-8.56,1.19-4.56-2.15-9.32-6.4-11.37s-9.15-2.04-13.86-2c-97.19.84-194.37,2.06-291.56,2.53-7.76,0-16.14-.96-23.57,1.74-6.19,2.26-23.51,11.94-16.65,19.66Z"/></g><g id="phone_online-shopping-1-81"><rect class="cls-19_online-shopping-1-81 targetColor" x="62.41" y="84.94" width="125.86" height="340.57" rx="26.27" ry="26.27" style="fill: rgb(104, 225, 253);"/><rect class="cls-8_online-shopping-1-81" x="62.41" y="84.94" width="125.86" height="340.57" rx="26.27" ry="26.27"/><rect class="cls-19_online-shopping-1-81 targetColor" x="80.65" y="84.94" width="158.28" height="340.57" rx="29.47" ry="29.47" style="fill: rgb(104, 225, 253);"/><rect class="cls-17_online-shopping-1-81" x="93.62" y="110.59" width="134.85" height="288.74"/><path class="cls-9_online-shopping-1-81" d="M184.22,412.53c3.02,2.78,6.48,5.07,10.23,6.75.76.42,1.63.61,2.5.53"/><rect class="cls-7_online-shopping-1-81" x="145.88" y="405.06" width="31.38" height="11.99" rx="5.99" ry="5.99"/></g><g id="shopping_cart_online-shopping-1-81"><path class="cls-19_online-shopping-1-81 targetColor" d="M260.68,281.24l37.82-.5,13.87,43,16.8,59.21h-37.5l-31-101.71ZM307.88,325.15l-12.79-39.63-28.09.38,28.15,92.41h27.8l-15.07-53.16Z" style="fill: rgb(104, 225, 253);"/><rect class="cls-19_online-shopping-1-81 targetColor" x="315.48" y="265.4" width="59.22" height="107.88" style="fill: rgb(104, 225, 253);"/><rect class="cls-13_online-shopping-1-81" x="315.48" y="265.4" width="59.22" height="107.88"/><polygon class="cls-14_online-shopping-1-81" points="362.82 265.67 362.82 297.67 341.4 372.76 370.48 372.76 376.84 350.01 374.72 265.4 362.82 265.67"/><rect class="cls-19_online-shopping-1-81 targetColor" x="343.26" y="298.77" width="88" height="48.31" transform="translate(-28.81 607.77) rotate(-74.22)" style="fill: rgb(104, 225, 253);"/><rect class="cls-12_online-shopping-1-81" x="343.26" y="298.64" width="88" height="48.31" transform="translate(-28.68 607.68) rotate(-74.22)"/><path class="cls-15_online-shopping-1-81" d="M319.41,414.47c-2.28-3.77-1.07-8.67,2.7-10.95,3.52-2.13,8.08-1.23,10.53,2.08h0c2.62,3.54,1.88,8.53-1.66,11.15-3.54,2.62-8.53,1.88-11.15-1.66-.15-.2-.29-.41-.42-.62ZM328.75,408.21c-1-1.54-3.06-1.99-4.6-.99-1.54,1-1.99,3.06-.99,4.6,1,1.54,3.06,1.99,4.6.99.03-.02.06-.04.09-.06,1.47-1.02,1.87-3.03.9-4.54Z"/><path class="cls-15_online-shopping-1-81" d="M377.82,414.47c-2.33-3.74-1.19-8.66,2.55-10.99,3.57-2.22,8.24-1.3,10.7,2.11h0c2.33,3.74,1.19,8.66-2.55,10.99-3.57,2.22-8.24,1.3-10.7-2.11ZM387.16,408.21c-1-1.54-3.06-1.98-4.6-.98s-1.98,3.06-.98,4.6,3.06,1.98,4.6.98c.03-.02.07-.04.1-.07,1.47-1.03,1.86-3.03.89-4.54Z"/><path class="cls-19_online-shopping-1-81 targetColor" d="M299.56,299.23h133.69l-30.71,83.7h-79.15l-23.82-83.7ZM426.52,303.92h-120.75l21.15,74.31h72.33l27.27-74.31Z" style="fill: rgb(104, 225, 253);"/><path class="cls-19_online-shopping-1-81 targetColor" d="M266.04,299.23h135.97l-30.72,83.7h-79.15l-26.1-83.7ZM395.3,303.92h-120.77l21.15,74.31h72.39l27.23-74.31Z" style="fill: rgb(104, 225, 253);"/><polygon class="cls-19_online-shopping-1-81 targetColor" points="291.75 406.33 383.53 406.33 383.53 401.64 296.45 401.64 296.45 380.58 291.75 380.58 291.75 406.33" style="fill: rgb(104, 225, 253);"/><polygon class="cls-19_online-shopping-1-81 targetColor" points="322.47 406.33 397.19 406.33 397.19 401.64 327.16 401.64 327.16 380.58 322.47 380.58 322.47 406.33" style="fill: rgb(104, 225, 253);"/><path class="cls-15_online-shopping-1-81" d="M298.92,410.03c0-4.4,3.57-7.97,7.97-7.97,4.4,0,7.97,3.57,7.97,7.97s-3.57,7.97-7.97,7.97h-.01c-4.4-.01-7.96-3.58-7.96-7.97ZM303.61,410.03c-.03,1.84,1.43,3.35,3.27,3.38,1.84.03,3.35-1.43,3.38-3.27.03-1.84-1.43-3.35-3.27-3.38-.04,0-.07,0-.11,0-1.79.03-3.24,1.48-3.27,3.27h0Z"/><path class="cls-15_online-shopping-1-81" d="M357.22,414.47c-2.28-3.77-1.07-8.67,2.7-10.95,3.52-2.13,8.08-1.23,10.53,2.08h0c2.62,3.54,1.88,8.53-1.66,11.15-3.54,2.62-8.53,1.88-11.15-1.66-.15-.2-.29-.41-.42-.62ZM366.56,408.21c-1-1.54-3.06-1.99-4.6-.99-1.54,1-1.99,3.06-.99,4.6,1,1.54,3.06,1.99,4.6.99.03-.02.06-.04.09-.06,1.47-1.02,1.87-3.03.9-4.54Z"/><rect class="cls-19_online-shopping-1-81 targetColor" x="274.32" y="316" width="148.42" height="3.54" style="fill: rgb(104, 225, 253);"/><rect class="cls-19_online-shopping-1-81 targetColor" x="278.19" y="327.9" width="141.37" height="3.54" style="fill: rgb(104, 225, 253);"/><rect class="cls-19_online-shopping-1-81 targetColor" x="282.07" y="339.8" width="132.91" height="3.54" style="fill: rgb(104, 225, 253);"/><rect class="cls-19_online-shopping-1-81 targetColor" x="285.95" y="351.7" width="124.45" height="3.54" style="fill: rgb(104, 225, 253);"/><rect class="cls-19_online-shopping-1-81 targetColor" x="289.82" y="363.59" width="115.99" height="3.54" style="fill: rgb(104, 225, 253);"/><rect class="cls-19_online-shopping-1-81 targetColor" x="359.02" y="338.53" width="83.31" height="3.54" transform="translate(-56.32 600.1) rotate(-69.96)" style="fill: rgb(104, 225, 253);"/><rect class="cls-19_online-shopping-1-81 targetColor" x="322.11" y="338.03" width="80.48" height="3.54" transform="translate(-65.97 591.39) rotate(-73.59)" style="fill: rgb(104, 225, 253);"/><rect class="cls-19_online-shopping-1-81 targetColor" x="298.34" y="337.76" width="78.84" height="3.54" transform="translate(-12.89 665.72) rotate(-88.08)" style="fill: rgb(104, 225, 253);"/><rect class="cls-19_online-shopping-1-81 targetColor" x="305.07" y="300.99" width="3.54" height="80.79" transform="translate(-86.9 105.45) rotate(-17.12)" style="fill: rgb(104, 225, 253);"/></g><g id="character_online-shopping-1-81"><path class="cls-18_online-shopping-1-81" d="M253.09,344.56l.47,64.58-6.81.64s-8.82-28.2-7.76-32.44,3.33-14.27,3.33-14.27c0,0-6.65-12.69-6.43-16.64.22-2.5,1.14-4.88,2.65-6.88l14.56,5Z"/><path class="cls-18_online-shopping-1-81" d="M224.71,344.56s0,10.23-1.05,12.69c0,.55-.86,1.55-1.12,2-.81,1.38-1.64,2.74-2.48,4.11-3.32,5.43-6.69,10.84-10.06,16.24s-7.04,11.26-10.57,16.88c-1.2,1.9-2.39,3.81-3.59,5.71-.35.55-.67,1.12-1.04,1.65-.67.97-1.73,1.01-2.88,1.38-.38.12-.76.24-1.15.3-1.23.18-2.54-.36-3.3-1.35-1.11-1.46-.63-3.1-.08-4.65,2.23-6.19,4.57-12.35,7.09-18.43,1.5-3.62,3.05-7.22,4.79-10.73,1.2-2.43,2.45-5.06,4.27-7.11l5.63-6.34.87-13.59,14.66,1.24Z"/><path class="cls-16_online-shopping-1-81" d="M214.56,188.06c-.27-2.99-1.48-5.7-.89-8.87,1-5.42,6.1-9.42,11.5-10.52s11.02.16,16.23,2c3.48,1.09,6.72,2.84,9.54,5.17,6.87,6.17,7.67,16.39,10.35,25.23,1.04,3.43,2.57,6.94,5.55,8.99,3.89,2.73,9.14,2.22,13.66,3.64,5.81,1.94,10.05,6.96,10.99,13.01.74,5.25-.94,11.33,2.46,15.39,1.77,2.12,4.65,3.19,6.13,5.55.74,1.32,1.22,2.77,1.41,4.27.85,4.55,1.11,10.13-2.58,12.87-1.87,1.13-4,1.75-6.19,1.77-5.29.47-10.75.48-15.76-1.24-4.5-1.55-8.42-4.44-12.26-7.23-7.87-5.8-15.78-11.62-22.89-18.34-4.44-4.18-8.58-8.51-13.31-12.35-3.16-2.57-5.55-6.98-8.68-9.18-1.62-1.11-3.59-1.11-5.19-2.62-1.26-1.23-2.19-2.76-2.72-4.44-1.19-3.85-.51-8,.47-11.89.83-3.33,2.46-7.22,2.22-10.69l-.03-.5Z"/><path class="cls-10_online-shopping-1-81" d="M249.04,194.54c1.49,3.61,2.72,7.31,3.69,11.09,1.11,3.74,2.62,7.48,5.25,10.37,1.41,1.33,2.74,2.75,3.97,4.25,2.41,3.49,2.13,8.26.64,12.2-.73,1.94-2.02,4-4.07,4.33s-3.75-1.11-5.22-2.48l-15.83-14.42c-2.22-1.81-4.14-3.96-5.7-6.37-2.05-3.56-2.41-7.89-1.95-11.98.28-3.55,1.42-6.98,3.33-9.98,1.53-2.22,5.4-6.2,8.45-5.32,3.37,1.05,6.09,5.45,7.44,8.32Z"/><path class="cls-19_online-shopping-1-81 targetColor" d="M260.86,252.47c.29.92.7,1.8,1.22,2.62,1.05,1.26,2.39,2.25,3.9,2.88,5.94,3.06,15.05,6.34,20.06,10.76.62.48,1.13,1.09,1.5,1.79.72,1.56,0,3.33-.67,4.96-.3.89-.83,1.69-1.54,2.31-1.29.93-3.07.53-4.59.08-5.88-1.74-11.66-3.8-17.31-6.17-3.16-1.27-6.23-2.75-9.18-4.44-2.3-1.01-3.88-3.19-4.11-5.69-1.07-5.69-1.79-11.44-2.15-17.21l-1.11-13.59c-.21-2.62-8.16-11.74-5.77-13.55,4.68-3.52,11.51,6.06,12.59,8.02,3.01,5.52,5.99,23.89,7.16,27.24Z" style="fill: rgb(104, 225, 253);"/><path class="cls-11_online-shopping-1-81" d="M260.86,252.47c.29.92.7,1.8,1.22,2.62,1.05,1.26,2.39,2.25,3.9,2.88,5.94,3.06,15.05,6.34,20.06,10.76.62.48,1.13,1.09,1.5,1.79.72,1.56,0,3.33-.67,4.96-.3.89-.83,1.69-1.54,2.31-1.29.93-3.07.53-4.59.08-5.88-1.74-11.66-3.8-17.31-6.17-3.16-1.27-6.23-2.75-9.18-4.44-2.3-1.01-3.88-3.19-4.11-5.69-1.07-5.69-1.79-11.44-2.15-17.21l-1.11-13.59c-.21-2.62-8.16-11.74-5.77-13.55,4.68-3.52,11.51,6.06,12.59,8.02,3.01,5.52,5.99,23.89,7.16,27.24Z"/><path class="cls-15_online-shopping-1-81" d="M257.17,339.94c.09,1.1-.18,2.2-.78,3.13-.63.64-1.43,1.09-2.31,1.29-4.44,1.4-42.14,2.82-49.19,1.51-2.74-10.11-2.84-20.81-1.46-31.2.54-4.05,1.34-8.17,3.48-11.65.54-.95,1.3-1.76,2.22-2.36,1.36-.65,2.86-.93,4.36-.81,10.87-.11,21.93-.37,32.73,1.18,3.33.48,5.13,1.53,6.31,4.82,1.69,5.2,2.88,10.54,3.53,15.97.85,6,1.22,12.06,1.11,18.12Z"/><path class="cls-4_online-shopping-1-81" d="M204.92,345.87l1.69.29c.4-.21.8-.44,1.18-.69.93-.52,1.71-1.26,2.27-2.15.41-.92.61-1.91.58-2.92.31-8.37-1.29-16.88.42-25.09.61-2.95,1.83-5.61,2.69-8.45.8-2.6-.98-4.15-3.07-5.67-.37-.28-.76-.52-1.18-.72l-.38.19c-.92.59-1.68,1.4-2.22,2.36-2.15,3.47-2.95,7.6-3.49,11.65-1.33,10.38-1.24,21.08,1.51,31.2Z"/><path class="cls-18_online-shopping-1-81" d="M231.66,209.21c.05,1.7.72,3.31,1.89,4.55,1.73,1.55,4.36,1.46,6.51,2.33.28.09.53.25.73.45.16.19.27.41.33.65.27,1.13.18,2.32-.26,3.4-1.34,3.27-4.06,5.77-7.42,6.85-3.34,1.04-6.87,1.28-10.31.72-1.17-.07-2.31-.41-3.33-.99-1.07-.81-1.91-1.87-2.46-3.09-.68-1.11-1.12-2.35-1.32-3.64-.18-1.31.33-2.63,1.36-3.46.48-.29.99-.53,1.52-.7.83-.33,1.64-.73,2.4-1.21.77-.4,1.38-1.06,1.71-1.86.13-.69.1-1.4-.09-2.07-.42-2.28-.42-4.63,0-6.91.1-.68.31-1.33.62-1.94,1.04-1.89,3.41-2.58,5.3-1.53.29.16.56.35.8.58,2.18,2.02,1.72,5.21,2.02,7.86Z"/><path class="cls-18_online-shopping-1-81" d="M242.01,197.03c.13,1.56,0,3.12-.39,4.64-1.11,3.59-4.91,5.91-8.67,6.07-1.23.1-2.47-.14-3.58-.68-.63-.37-1.22-.82-1.75-1.33-2.63-2.41-5.05-5.28-5.84-8.75-.28-1.32-.39-2.67-.34-4.01-.03-1.98.31-3.95,1-5.8,1.43-3.35,4.52-5.7,8.13-6.19,3.65-.47,7.05,1.38,9.72,3.66,1.33,1.11,1.11,3.4,1.3,5.11.2,2.43.37,4.86.44,7.29Z"/><path class="cls-19_online-shopping-1-81 targetColor" d="M207.51,303.88c1.69,1.15,3.61,1.91,5.63,2.22,10.79,2.39,21.97,2.37,32.75-.06,2.22-.52,4.76-1.34,5.73-3.45.44-1.15.61-2.4.49-3.63-.25-11.6-.51-23.21-.78-34.82-.29-13.2-.58-26.44-2.52-39.49-.57-2.69-1.64-5.26-3.15-7.56-1.26-1.72-6.96-.8-11.72-3.88-1.31-.84,1.53,3.53-2.74,5.33-4.27,1.81-9.36-6.93-12.07-3.4-1.52,1.97-6.32.51-7.84,2.47-1.22,1.57-1.97,4.91-2.45,8.93-1.02,8.54-.77,20.13-.99,24.34-.8,14.75.44,33.57-4.44,45.76-1.04,2.64,1.87,5.5,4.08,7.24Z" style="fill: rgb(104, 225, 253);"/><path class="cls-2_online-shopping-1-81" d="M207.51,303.88c1.69,1.15,3.61,1.91,5.63,2.22,2.69.6,5.42,1.04,8.16,1.34l.78-.1c-2.01-6.54-2.11-13.49-2.05-20.33.04-3.77.11-7.55.19-11.33,0-2.38.13-4.89,1.36-6.93s4.03-3.33,6.08-2.1c-3.53-2.13-6.41-11.09-7.85-14.78-2.08-5.33-3.53-10.88-4.34-16.55-.55-3.88-.34-10.72-6.3-8.87l-.32.11c-1.02,8.54-.77,20.13-.99,24.34-.8,14.75.44,33.57-4.44,45.76-1.04,2.62,1.87,5.48,4.08,7.22Z"/><path class="cls-15_online-shopping-1-81" d="M181.81,408.75c.33,1.51,1.18,2.85,2.41,3.78,2.42,2.23,5.05,4,7.95,5.52,2.23,1.18,3.68,3.55,6.3,4.02,2.35.43,5.11-1.16,5.26-3.54.13-2.1-1.6-3.77-2.93-5.4-1.07-1.32-1.95-2.78-2.82-4.24-1.05-1.76-2.1-3.52-3.16-5.28-1.95,1.46-5.08.95-6.47-1.05-.36-.52-.64-1.14-1.19-1.43-.67-.36-1.55-.1-2.11.43-1.64,1.53-3.75,4.85-3.23,7.2Z"/><path class="cls-15_online-shopping-1-81" d="M246.85,408.97c-.13-.04-.26-.07-.4-.07-.67.03-.81.98-.76,1.49.18,1.52-.91,2.89-.73,4.41s1.23,2.81,2.73,3.27c1.6.5,3.31.25,4.98.37,4.63.34,8.96,3.54,13.54,2.75.82-.14,1.63-.42,2.26-.96s1.06-1.36.97-2.18c-.16-1.49-1.75-2.31-3.1-2.95-3.63-1.72-6.99-4.01-9.92-6.77-.43-.41-.87-.83-1.41-1.09s-1.22-.3-1.71.04c-.29.2-.49.51-.71.79-1.19,1.48-3.43,1.99-5.14,1.17-.19-.09-.39-.2-.59-.27Z"/><path class="cls-19_online-shopping-1-81 targetColor" d="M216.71,251.46c-.16,1.18-.03,2.38.37,3.49.68,1.55,2.22,2.48,3.73,3.33l33.27,18.85c1.56.89,3.23,1.89,3.89,3.56,1.46,3.72-3.13,7.12-7.11,7.42-4.18.31-8.31-.95-12.27-2.32-12.52-4.32-24.6-9.79-36.11-16.34-2.94-1.09-4.68-4.12-4.14-7.21-.03-9.19.67-18.38,2.11-27.46.79-4.97,1.91-10.15,5.23-13.93,4.95-5.61,14.01-5.79,14.78,2.46.93,9.29-3.13,18.88-3.76,28.14Z" style="fill: rgb(104, 225, 253);"/><path class="cls-3_online-shopping-1-81" d="M216.71,251.46c-.16,1.18-.03,2.38.37,3.49.68,1.55,2.22,2.48,3.73,3.33l33.27,18.85c1.56.89,3.23,1.89,3.89,3.56,1.46,3.72-3.13,7.12-7.11,7.42-4.18.31-8.31-.95-12.27-2.32-12.52-4.32-24.6-9.79-36.11-16.34-2.94-1.09-4.68-4.12-4.14-7.21-.03-9.19.67-18.38,2.11-27.46.79-4.97,1.91-10.15,5.23-13.93,4.95-5.61,14.01-5.79,14.78,2.46.93,9.29-3.13,18.88-3.76,28.14Z"/><path class="cls-18_online-shopping-1-81" d="M262.31,280.42c1.01.1,2.1-.09,3.1-.16l3.65-.23c.15,0,.31,0,.41.1.05.06.07.15.07.23,0,.43-.32.79-.67,1.05s-.75.44-1.04.76c.33.19.67.37.98.58,1.75,1.71,2.24,4.33,1.22,6.55-.36.73-.98,1.29-1.74,1.57-.67.18-1.38.16-2.03-.07-1.91-.57-3.43-2.03-5.27-2.77-.45-.22-.96-.28-1.44-.17-.31.16-.6.34-.88.55-.78.44-1.73.47-2.54.09-.79-.39-1.46-.99-1.93-1.74-.68-.94-1-2.09-.92-3.25.19-1.79,1.22-2.35,2.76-2.54,2.04-.25,4.05-.87,6.11-.6.05,0,.11.01.16.02Z"/><path class="cls-18_online-shopping-1-81" d="M293.27,274.43c1.57,1.95,1.85,4.2,2.09,6.59.07.73.1,1.46-.04,2.18s-.45,1.41-.99,1.91c-.27.25-.61.46-.98.49s-.77-.12-.96-.45c-.3.35-.68.62-1.11.8-.51.21-1.16.24-1.56-.14-.4-.38-.39-1-.45-1.55-.13-1.17-.73-2.28-1.63-3.04-.15-.12-.3-.24-.48-.3-.24-.09-.49-.09-.75-.07-1.86.11-3.75.84-5.54.34-.35-.1-.73-.29-.81-.65-.09-.4.25-.74.52-1.05.39-.45.68-1,.84-1.57.08-.3.13-.62.04-.93-.06-.21-.19-.4-.3-.6-.84-1.4-1.35-3-.03-4.27,3.22-3.22,9.73-.65,12.11,2.31Z"/><path class="cls-16_online-shopping-1-81" d="M234.66,185.11c2.97,1.77,6.65,1.41,10.14.98-.34-2.06-1.38-3.94-2.94-5.32-1.1-1.07-2.4-1.92-3.82-2.51-1.94-.79-7.1-1.8-8.37.63-1.04,1.99,3.49,5.33,4.99,6.22Z"/></g></svg>