<svg id="_0253_sun" xmlns="http://www.w3.org/2000/svg" xmlns:xlink="http://www.w3.org/1999/xlink" viewBox="0 0 500 500" data-imageid="sun-99" imageName="Sun" class="illustrations_image" style="width: 188px;"><defs><style>.cls-1_sun-99{fill:none;}.cls-1_sun-99,.cls-2_sun-99,.cls-3_sun-99,.cls-4_sun-99,.cls-5_sun-99,.cls-6_sun-99,.cls-7_sun-99,.cls-8_sun-99,.cls-9_sun-99,.cls-10_sun-99,.cls-11_sun-99,.cls-12_sun-99,.cls-13_sun-99,.cls-14_sun-99{stroke-width:0px;}.cls-2_sun-99{fill:url(#linear-gradient);}.cls-3_sun-99{opacity:.61;}.cls-3_sun-99,.cls-13_sun-99{isolation:isolate;}.cls-3_sun-99,.cls-13_sun-99,.cls-14_sun-99{fill:#68e1fd;}.cls-4_sun-99{fill:url(#linear-gradient-10-sun-99);}.cls-5_sun-99{fill:url(#linear-gradient-4-sun-99);}.cls-6_sun-99{fill:url(#linear-gradient-2-sun-99);}.cls-7_sun-99{fill:url(#linear-gradient-3-sun-99);}.cls-8_sun-99{fill:url(#linear-gradient-8-sun-99);}.cls-9_sun-99{fill:url(#linear-gradient-9-sun-99);}.cls-10_sun-99{fill:url(#linear-gradient-7-sun-99);}.cls-11_sun-99{fill:url(#linear-gradient-5-sun-99);}.cls-12_sun-99{fill:url(#linear-gradient-6-sun-99);}.cls-13_sun-99{opacity:.24;}</style><linearGradient id="linear-gradient-sun-99" x1="771.01" y1="2877.84" x2="776.66" y2="2607.82" gradientTransform="translate(-479.81 2939.2) scale(1 -1)" gradientUnits="userSpaceOnUse"><stop offset="0" stop-color="#fff" stop-opacity="0"/><stop offset=".13" stop-color="#fff" stop-opacity=".23"/><stop offset=".23" stop-color="#fff" stop-opacity=".41"/><stop offset=".35" stop-color="#fff" stop-opacity=".59"/><stop offset=".48" stop-color="#fff" stop-opacity=".74"/><stop offset=".6" stop-color="#fff" stop-opacity=".85"/><stop offset=".72" stop-color="#fff" stop-opacity=".93"/><stop offset=".84" stop-color="#fff" stop-opacity=".98"/><stop offset=".95" stop-color="#fff"/></linearGradient><linearGradient id="linear-gradient-2-sun-99" x1="719.62" y1="2809.65" x2="875.23" y2="2640.63" gradientTransform="translate(-471 2941.54) scale(1 -1)" xlink:href="#linear-gradient-sun-99"/><linearGradient id="linear-gradient-3-sun-99" x1="718.02" y1="2804.22" x2="877.95" y2="2630.49" gradientTransform="translate(-471 2941.54) scale(1 -1)" xlink:href="#linear-gradient-sun-99"/><linearGradient id="linear-gradient-4-sun-99" x1="716.52" y1="2757.08" x2="767.46" y2="2701.75" gradientTransform="translate(-471 2941.54) scale(1 -1)" xlink:href="#linear-gradient-sun-99"/><linearGradient id="linear-gradient-5-sun-99" x1="790.98" y1="2766.04" x2="841.91" y2="2710.7" gradientTransform="translate(-471 2941.54) scale(1 -1)" xlink:href="#linear-gradient-sun-99"/><linearGradient id="linear-gradient-6-sun-99" x1="721.87" y1="2578.24" x2="751.62" y2="2327.95" gradientTransform="translate(-479.81 2939.2) scale(1 -1)" gradientUnits="userSpaceOnUse"><stop offset="0" stop-color="#231f20" stop-opacity="0"/><stop offset="1" stop-color="#231f20"/></linearGradient><linearGradient id="linear-gradient-7-sun-99" x1="615.07" y1="2578.6" x2="626.23" y2="2468.75" xlink:href="#linear-gradient-6-sun-99"/><linearGradient id="linear-gradient-8-sun-99" x1="570.39" y1="2684.17" x2="558.49" y2="2494.73" xlink:href="#linear-gradient-6-sun-99"/><linearGradient id="linear-gradient-9-sun-99" x1="608.71" y1="2714.29" x2="621.46" y2="2252.6" xlink:href="#linear-gradient-6-sun-99"/><linearGradient id="linear-gradient-10-sun-99" x1="556.76" y1="2640.24" x2="940.44" y2="2532.77" xlink:href="#linear-gradient-6-sun-99"/></defs><g id="background_sun-99"><path class="cls-13_sun-99 targetColor" d="M467.06,330.76c-15.13,7.72-33.25,8.37-46.76,19-2.46,1.94-4.71,4.11-6.73,6.5-14.36,17.05-18.06,43.8-32.42,61.72-20.44,25.5-57.08,26.88-87.28,18.12-30.2-8.76-58.51-25.47-89.5-29.58-48.03-6.33-103.31,16.59-141.56-15.32-12.38-10.35-20.81-25.13-28.19-39.98,0,0,0-.05-.05-.09-5.69-11.35-11.06-23.83-9.82-36.68.93-9.53,5.43-18.15,9.82-26.49,13.48-25.61,37.71-56.76,41.87-86.32,3.85-27.23-10.94-57.05,6.9-82.64,13.1-27.07,38.79-46.68,66.89-50.92,21.4-3.22,43.11,1.98,64.71,1,41.04-1.87,78.15-25.67,117.98-36.33,39.83-10.65,91.18-1.69,106.76,39.23,10.48,27.71.53,59.88,7.46,88.86,9.41,39.3,48.15,66.19,52.53,106.54,2.77,25.54-10.97,52.28-32.59,63.37Z" style="fill: rgb(104, 225, 253);"/></g><g id="sun_sun-99"><path class="cls-2_sun-99" d="M202.45,153.68c11.75,8.91,15.21,25.67,11.54,39.84-3.68,14.17-13.26,26.13-23.74,36.45,12.55-2.26,25.4,1.91,34.23,11.1,8.58,9.3,11.82,22.34,8.59,34.57,25.58-18.43,61.22-12.94,80.06,12.34,10.2-14.85,21.72-30.62,39.07-35.8,14.91-4.46,30.88-.08,45.8,4.3-12.88-4.85-20.3-19.42-19.27-33s9.2-25.87,19.62-34.77c-8.73,1.4-16.23-6.44-20.09-14.31-7.02-14.36-8.18-30.88-3.24-46.07-23.69,6.65-51.41-7.55-59.5-30.53-7.16,8.37-17.43,13.46-28.43,14.09-4.9.25-9.81-.41-14.47-1.93-3.65-1.19-10.03-6.99-13.27-7.2-4.8-.3-8.73,15.47-12.15,20.68-10.1,15.37-26.44,26.9-44.76,30.25Z"/><circle class="cls-14_sun-99 targetColor" cx="296.26" cy="188.07" r="58.75" style="fill: rgb(104, 225, 253);"/><circle class="cls-6_sun-99" cx="296.75" cy="184.16" r="55.74"/><ellipse class="cls-7_sun-99" cx="296.49" cy="191.05" rx="59.04" ry="55.77"/><ellipse class="cls-5_sun-99" cx="261.28" cy="201.57" rx="18.81" ry="17.76"/><ellipse class="cls-11_sun-99" cx="335.73" cy="192.61" rx="18.81" ry="17.76"/></g><g id="ground_sun-99"><path class="cls-3_sun-99 targetColor" d="M413.56,356.26c-3.48,4.24-6.45,8.87-8.85,13.8-7.91,15.67-12.69,34.32-23.58,47.93-20.44,25.5-57.08,26.88-87.28,18.12-30.2-8.76-58.51-25.47-89.5-29.58-39.16-5.17-83.12,9.13-118.77-2.71-8.33-2.72-16.06-7-22.78-12.61-1.41-1.19-2.77-2.4-4.07-3.68-8.58-8.43-15.13-19-20.91-29.97-1.1-2.11-2.2-4.24-3.25-6.36,0,0,0-.05-.05-.09,27.07-9.38,57.08,4.81,86.11,6.73,14.95.99,30.45-1.3,44.61,3.62,6.82,2.38,13.24,6.39,20.42,6.87,6.36.45,12.5-1.95,18.74-3.2,18.09-3.59,36.68,2.43,55.13,2.62,28.3.23,55.1-13.32,83.35-15.15,17.02-1.1,48.88-3.87,70.67,3.65Z" style="fill: rgb(104, 225, 253);"/><path class="cls-12_sun-99" d="M404.71,370.06c-7.91,15.67-12.69,34.32-23.58,47.93-20.44,25.5-57.08,26.88-87.28,18.12-30.2-8.76-58.51-25.47-89.5-29.58-39.16-5.17-83.12,9.13-118.77-2.71,11.56-4.5,23.12-8.99,34.66-13.46,3.96-1.53,7.97-3.08,12.23-3.54,4.52-.51,9.1.28,13.6.99,19.6,3.03,39.4,4.53,59.23,4.5,9.22,0,18.57-.37,27.42,2.2,5.29,1.53,10.3,4.1,15.72,5.15,9.27,1.75,18.71-1.05,27.71-3.85l62.62-19.36c17.47-5.41,41.36-14.9,59.73-9.3,2.19.69,4.28,1.67,6.21,2.91Z"/><path class="cls-10_sun-99" d="M234.32,379.58c-16.68,1.5-33.53,3.03-50.13.73-14.42-2.01-28.82-6.86-43.25-5.03-3.78.56-7.52,1.33-11.22,2.29-18.25,4.23-36.86,6.72-55.58,7.44-5.22.08-10.4.93-15.38,2.52-8.59-8.43-15.15-19-20.92-29.97,17.31-.93,34.63-.87,51.52,2.62,5.37,1.14,10.72,2.62,16.17,3.17,12.13,1.3,24.51-1.75,36.56.09,6.19.99,12.07,3.22,17.81,5.71,4.37,1.86,8.73,3.93,13.48,4.69,3.28.37,6.59.53,9.89.45,6.03.11,11.99.79,17.95,1.49,11,1.24,22.03,2.51,33.09,3.8Z"/></g><g id="plant_sun-99"><path class="cls-14_sun-99 targetColor" d="M155.19,263.79c-3.08,8.38-10.22,14.62-18.94,16.54-1.75.37-3.62.59-5.09,1.52-.4.24-.76.53-1.07.87-1.14,1.3-1.39,3.14-1.62,4.89-.79,6.88-1.6,13.75-2.43,20.61-.96,8.11-1.92,16.23-2.38,24.37-.58,11.84-.21,23.7,1.1,35.48.37,3.27.68,6.86-1.19,9.61-.55.8-1.26,1.49-2.09,2.01-1.78,1.1-3.74,1.87-5.8,2.26-5.68,1.31-11.5,1.91-17.33,1.81-1.36,0-2.74-.05-4.1-.17-10.17-.76-3.76-18.01-2.97-23.95,1.81-13.2.87-27.31-.96-40.46-.09-.65-.17-1.3-.31-1.95-.18-.69-.45-1.35-.82-1.96-.95-1.23-2.14-2.27-3.49-3.05-8.68-5.96-13.97-16.09-15.55-26.5-1.58-10.41.09-21.09,3.11-31.15.97-3.2,2.62-6.81,5.8-7.47.09-.03.19-.05.29-.05,3.84-.57,6.67,3.62,7.57,7.41,2.06,8.62-.48,17.89,1.92,26.43,1.07,3.76,4.72,7.86,8.26,6.11,2.23-1.07,2.82-3.78,3-6.38v-.06c0-.45.05-.87.05-1.3.21-15,1.3-29.98,3.27-44.85.68-5.14,1.5-10.4,3.73-15.1,2.18-4.49,6.44-8.68,11.35-8.48.24-.03.49-.03.73,0,4.27.54,7.49,4.37,8.73,8.49,1.24,4.12.96,8.51.82,12.8-.17,5.66-.02,11.33.45,16.97l.34,3.55c.17,1.7.37,3.37.59,5.07,2.38,1.47,5.71-.2,6.99-2.69,1.27-2.49,1.11-5.48.87-8.25-.26-3.22-.48-6.44-.74-9.67-.3-2.25-.2-4.54.29-6.76.47-1.76,1.63-3.26,3.22-4.16.4-.23.83-.39,1.27-.48,3.78-.76,6.79,3.08,8.53,6.53,4.94,9.76,8.22,21.24,4.58,31.53Z" style="fill: rgb(104, 225, 253);"/><path class="cls-8_sun-99" d="M99.38,296.05c-.59,1.86-1.81,3.84-3.73,4.07-1.08.03-2.14-.26-3.06-.82-6.08-3.21-10.6-8.75-12.52-15.35-2.88-9.96.51-20.19,0-30.28-.09-1.84-.87-4.3-1.02-6.51.09-.03.19-.05.29-.05,3.84-.57,6.67,3.62,7.57,7.41,2.06,8.62-.48,17.89,1.92,26.43,1.07,3.76,4.72,7.86,8.26,6.11,2.23-1.07,2.82-3.78,3-6.38.11,1.15.19,2.34.25,3.49.2,4.02.29,8.09-.96,11.88Z"/><path class="cls-1_sun-99" d="M129.58,252.67c-.74-6.81-1-13.67-.79-20.52.14-4.3.45-8.73-.82-12.8-1.27-4.07-4.46-7.95-8.73-8.49-.24-.03-.49-.03-.73,0,.02-.14.08-.28.17-.39,1.81-2.8,6.51-1.07,8.25.93,2.07,2.4,2.62,5.76,2.92,8.96.99,10.72.14,21.54-.25,32.31Z"/><path class="cls-9_sun-99" d="M145.43,242.55c.05,7.41-1.3,15.64-7.1,20.24-2.01,1.59-4.41,2.62-6.33,4.27-1.19,1.05-1.9,3.56-3,3.99-.2,8.09-.43,15.66-.54,16.59-.79,6.88-1.6,13.75-2.43,20.61-.96,8.11-1.92,16.23-2.38,24.37-.58,11.84-.21,23.7,1.1,35.48.37,3.27.68,6.86-1.19,9.61-.55.8-1.26,1.49-2.09,2.01-1.65-1.7-2.82-3.81-3.4-6.11-2.12-6.99-1.41-14.53-.79-21.83,1.01-11.74,1.8-23.49,2.38-35.25.96-20.61,1.23-41.22.81-61.83-.22-10.32-.6-20.62-1.15-30.91-.17-2.68-1.98-10.29-.87-13,.24-.03.49-.03.73,0,4.27.54,7.49,4.37,8.73,8.49,1.24,4.12.96,8.51.82,12.8-.17,5.66-.02,11.33.45,16.97l.34,3.55c.17,1.7.37,3.37.59,5.07,2.38,1.47,5.71-.2,6.99-2.69s1.11-5.48.87-8.25c-.26-3.22-.48-6.44-.74-9.67-.3-2.25-.2-4.54.29-6.76.47-1.76,1.63-3.26,3.22-4.16.09.09.17.2.25.29,3.64,4.42,4.38,10.47,4.41,16.12Z"/><path class="cls-4_sun-99" d="M106.82,372.41c0,2.5,0,5.1-1.14,7.34-1.7,3.22-5.28,4.99-8.86,4.37-.39-.05-.76-.22-1.04-.51-.24-.39-.34-.85-.27-1.31.66-16.25,1.32-32.5,1.97-48.74.29-7.27.59-14.59,2.42-21.63.95-3.67,2.31-7.23,3.05-10.95.96-4.83.87-9.8.72-14.72-.26-9.87-.54-19.75-.07-29.62.43-8.89.57-20.49,4.51-28.57,4.26,3.14,1.04,18.92.87,23.87-.32,9.75-.61,19.49-.87,29.25-.49,19.32-.85,38.65-1.07,57.99-.09,11.1-.16,22.18-.21,33.24Z"/></g></svg>